<?xml version="1.0" encoding="iso-8859-1"?>
<!-- Uploaded to: SVG Repo, www.svgrepo.com, Generator: SVG Repo Mixer Tools -->
<svg fill="#000000" height="800px" width="800px" version="1.1" id="Layer_1" xmlns="http://www.w3.org/2000/svg" xmlns:xlink="http://www.w3.org/1999/xlink" 
	 viewBox="0 0 512.004 512.004" xml:space="preserve">
<g>
	<g>
		<path d="M496.798,152.612l-230.4-102.4c-3.302-1.468-6.844-2.21-10.394-2.21c-3.541,0-7.091,0.734-10.394,2.21l-230.4,102.4
			c-9.242,4.113-15.206,13.278-15.206,23.39s5.956,19.285,15.206,23.39L38.404,209.7v45.457c-14.865,5.299-25.6,19.379-25.6,36.045
			c0,11.87,5.53,22.366,14.02,29.423L1.719,364.119c-3.541,6.127-1.434,13.952,4.685,17.485c2.014,1.161,4.215,1.715,6.391,1.715
			c4.429,0,8.721-2.304,11.102-6.4l14.515-25.139v29.022c0,7.074,5.726,12.8,12.8,12.8c7.074,0,12.8-5.726,12.8-12.8V351.78
			l14.515,25.139c2.372,4.113,6.673,6.4,11.102,6.4c2.176,0,4.378-0.546,6.391-1.715c6.127-3.541,8.226-11.366,4.685-17.485
			l-25.105-43.494c8.491-7.049,14.02-17.544,14.02-29.423c0-16.666-10.735-30.737-25.6-36.045v-34.074l38.4,17.067v14.652
			c0,8.03,3.772,15.599,10.18,20.437c0.845,0.64,1.852,0.93,2.756,1.451c-0.026,1.246-0.145,2.458-0.145,3.712
			c0,102.502,63.036,185.6,140.8,185.6s140.8-83.098,140.8-185.6c0-1.254-0.119-2.466-0.145-3.712
			c0.904-0.521,1.911-0.811,2.756-1.451c6.408-4.838,10.18-12.407,10.18-20.437V238.15l87.194-38.75
			c9.25-4.113,15.206-13.278,15.206-23.398S506.048,156.717,496.798,152.612z M51.213,304.002c-7.066,0-12.8-5.734-12.8-12.8
			s5.734-12.8,12.8-12.8c7.066,0,12.8,5.734,12.8,12.8S58.278,304.002,51.213,304.002z M256.004,438.402
			c-63.522,0-115.2-71.774-115.2-160c0-0.93,0.094-1.835,0.102-2.765c2.236-0.683,4.412-1.323,6.75-2.048
			c22.323-6.98,50.099-15.659,108.348-15.659s86.025,8.687,108.348,15.659c2.338,0.734,4.514,1.365,6.75,2.048
			c0.009,0.93,0.102,1.835,0.102,2.765C371.204,366.628,319.526,438.402,256.004,438.402z M384.004,252.802
			c-26.103-7.458-54.929-20.48-128-20.48s-101.897,13.022-128,20.48c0-22.545,0-43.989,0-50.859c0-21.205,57.31-38.4,128-38.4
			s128,17.195,128,38.4C384.004,210.579,384.004,231.298,384.004,252.802z M409.604,210.135v-8.192c0-60.911-127.949-64-153.6-64
			c-25.651,0-153.6,3.089-153.6,64v8.201l-76.8-34.133l230.4-102.4l230.4,102.4L409.604,210.135z"/>
	</g>
</g>
</svg>